<svg width="300" height="300" viewBox="0 0 300 300" fill="none" xmlns="http://www.w3.org/2000/svg">
<g clip-path="url(#clip0_1_42)">
<path d="M261.745 149.685H201.58C196.54 149.685 193.39 144.233 195.91 139.828L226.045 87.8161C228.355 83.7264 228.355 78.693 226.045 74.7082L193.495 18.6064C191.185 14.5167 186.775 12 182.05 12H116.95C112.225 12 107.92 14.5167 105.505 18.6064L73.375 74.2888C71.065 78.3784 71.065 83.4119 73.375 87.5015L103.615 139.933C106.135 144.337 102.985 149.79 97.945 149.79H37.36C32.635 149.79 28.33 152.307 25.915 156.397L-6.21501 211.974C-8.52501 216.064 -8.52501 221.097 -6.21501 225.187L26.335 281.394C28.645 285.483 33.055 288 37.675 288L102.145 288.105C106.87 288.105 111.175 285.588 113.59 281.498L143.935 229.696C146.455 225.397 152.755 225.397 155.275 229.696L185.62 281.603C187.93 285.693 192.34 288.21 197.065 288.21H261.43C266.155 288.21 270.46 285.693 272.875 281.603L305.425 225.397C307.735 221.307 307.735 216.378 305.425 212.289L273.295 156.502C270.775 152.202 266.47 149.685 261.745 149.685ZM155.275 91.3815L183.31 139.828C185.83 144.233 182.68 149.685 177.64 149.685H121.57C116.53 149.685 113.38 144.233 115.9 139.828L143.935 91.3815C146.35 86.9772 152.755 86.9772 155.275 91.3815ZM195.28 160.591L222.895 208.304C225.415 212.708 222.265 218.161 217.225 218.161H161.995C156.955 218.161 153.805 212.708 156.325 208.304L183.94 160.591C186.355 156.187 192.76 156.187 195.28 160.591ZM76.21 208.304L103.825 160.591C106.345 156.187 112.75 156.187 115.27 160.591L142.885 208.304C145.405 212.708 142.255 218.161 137.215 218.161H81.88C76.84 218.161 73.69 212.708 76.21 208.304Z" fill="#191919"/>
</g>
<defs>
<clipPath id="clip0_1_42">
<rect width="300" height="300" fill="white"/>
</clipPath>
</defs>
</svg>
