<svg width="300" height="300" viewBox="0 0 300 300" fill="none" xmlns="http://www.w3.org/2000/svg">
<g clip-path="url(#clip0_1_80)">
<path d="M262.45 144.008C259.454 86.6844 213.316 40.5459 155.992 37.5499C152.796 37.3502 150.2 34.7537 150.2 31.5579L150 3.99467C150 1.7976 148.103 0 145.906 0C107.357 0.998668 71.305 16.478 43.9415 43.9414C16.578 71.4048 0.99873 107.357 6.17206e-05 145.905C-0.0998051 148.103 1.6978 150 3.99474 150L31.558 150.2C34.7537 150.2 37.3503 152.696 37.55 155.992C40.546 213.316 86.6845 259.454 144.008 262.45C147.204 262.65 149.8 265.246 149.8 268.442L150 296.005C150 298.202 151.898 300 154.095 300C192.643 299.001 228.695 283.522 256.059 256.059C283.422 228.695 298.902 192.643 300 154.095C300.1 151.897 298.302 150 296.005 150L268.442 149.8C265.246 149.7 262.65 147.204 262.45 144.008ZM112.949 146.405C114.647 128.728 128.728 114.647 146.405 112.949C148.402 112.75 150 111.052 150 109.055L150.2 81.6911C150.2 78.1957 153.196 75.3995 156.691 75.6991C192.543 78.8948 221.105 107.557 224.301 143.309C224.601 146.804 221.804 149.8 218.309 149.8L190.945 150C188.948 150 187.25 151.598 187.051 153.595C185.353 171.272 171.272 185.353 153.595 187.051C151.598 187.25 150 188.948 150 190.945L149.8 218.309C149.8 221.804 146.804 224.601 143.309 224.301C107.457 221.105 78.8949 192.443 75.6991 156.691C75.3995 153.196 78.1958 150.2 81.6911 150.2L109.055 150C111.052 150 112.75 148.502 112.949 146.405ZM155.792 224.9C192.643 222.104 222.104 192.643 224.9 155.792C225.1 152.696 227.696 150.3 230.892 150.3H255.959C259.454 150.3 262.151 153.196 261.951 156.691C258.655 213.216 213.216 258.655 156.691 261.951C153.196 262.15 150.3 259.454 150.3 255.959V230.892C150.2 227.796 152.696 225.2 155.792 224.9ZM149.7 44.0413V69.1079C149.7 72.2037 147.304 74.8003 144.208 75.0999C107.357 77.8961 77.8962 107.357 75.0999 144.208C74.9002 147.304 72.3037 149.7 69.1079 149.7H44.0413C40.546 149.7 37.8496 146.804 38.0493 143.309C41.4448 86.7843 86.7844 41.4447 143.409 38.0493C146.804 37.8495 149.7 40.6458 149.7 44.0413Z" fill="#191919"/>
</g>
<defs>
<clipPath id="clip0_1_80">
<rect width="300" height="300" fill="white"/>
</clipPath>
</defs>
</svg>
