<svg width="300" height="300" viewBox="0 0 300 300" fill="none" xmlns="http://www.w3.org/2000/svg">
<g clip-path="url(#clip0_1_109)">
<path d="M274 107.536L235.4 259.687C234.5 263.188 231.4 265.689 227.9 265.689L79.2 265.889C76 265.889 74.2 269.69 76.1 272.291L93.8 296.799C95.3 298.8 97.6 300 100 300L176.5 299.9C224.9 299.8 267.1 266.089 279.4 217.573L299.7 137.346C300.3 134.945 299.8 132.444 298.4 130.544L280.7 106.135C278.8 103.535 274.8 104.335 274 107.536Z" fill="#191919"/>
<path d="M152.6 232.477C186.3 232.477 215.7 208.87 224.3 175.158L243 101.434L251 70.0233C251.6 67.6225 251.1 65.1217 249.7 63.2211L227.2 32.2107L206.2 3.20107C204.7 1.2004 202.4 0 200 0L123.5 0.100033C75.1 0.100033 32.8 33.9113 20.6 82.3274L0.299963 162.554C-0.300037 164.955 0.199963 167.456 1.59996 169.356L24.1 200.367L45.1 229.376C46.6 231.377 48.9 232.578 51.3 232.578H81.8L152.6 232.477ZM179.1 198.366L96.6 198.466C93.4 198.466 91.1 195.365 91.9 192.164L113.3 107.536C114.2 104.035 117.3 101.534 120.8 101.534L203.3 101.434C206.5 101.434 208.8 104.535 208 107.736L186.6 192.364C185.7 195.865 182.6 198.366 179.1 198.366ZM26.1 192.264L64.6 40.2134C65.5 36.7122 68.6 34.2114 72.1 34.2114L220.5 34.0113C223.7 34.0113 226 37.1124 225.2 40.3134L219.5 62.8209C218.8 65.4218 216.5 67.3224 213.9 67.3224H172.4C124.1 67.4225 81.8 101.134 69.5 149.65L58.2 194.065C57.5 196.666 55.2 198.566 52.6 198.566H30.8C27.6 198.566 25.3 195.465 26.1 192.264Z" fill="#191919"/>
</g>
<defs>
<clipPath id="clip0_1_109">
<rect width="300" height="300" fill="white"/>
</clipPath>
</defs>
</svg>
