<svg width="300" height="300" viewBox="0 0 300 300" fill="none" xmlns="http://www.w3.org/2000/svg">
<g clip-path="url(#clip0_1_55)">
<path d="M218.695 11H80.305C73.48 11 67.075 14.6759 63.715 20.5572L-5.47999 140.39C-8.94499 146.377 -8.94499 153.623 -5.47999 159.61L63.715 279.443C67.18 285.429 73.48 289 80.305 289H218.59C225.415 289 231.82 285.324 235.18 279.443L304.375 159.61C307.84 153.623 307.84 146.377 304.375 140.39L235.285 20.5572C231.82 14.6759 225.52 11 218.695 11ZM253.66 180.93C245.26 181.245 236.86 180.3 228.775 178.304C225.73 177.569 224.26 173.998 225.835 171.267L253.24 123.796C255.13 120.646 259.75 120.646 261.535 123.796L273.925 145.326C275.605 148.267 275.605 151.943 273.925 154.884L261.64 176.204C260.065 178.934 257.02 180.825 253.66 180.93ZM76.525 102.056H130.39C133.96 102.056 136.795 105.312 136.06 108.883C134.17 118.23 130.81 127.472 125.77 136.294C120.73 145.011 114.43 152.573 107.29 158.875C104.56 161.29 100.255 160.66 98.47 157.404L71.485 110.668C69.28 106.887 72.115 102.056 76.525 102.056ZM149.5 177.464C159.58 177.464 169.24 179.144 178.27 182.19C181.735 183.345 183.31 187.336 181.42 190.487L154.435 237.223C152.23 241.109 146.665 241.109 144.46 237.223L117.475 190.487C115.69 187.336 117.16 183.345 120.625 182.19C129.76 179.039 139.42 177.464 149.5 177.464ZM173.23 136.294C168.19 127.577 164.83 118.335 162.94 108.883C162.205 105.312 165.04 102.056 168.61 102.056H222.475C226.885 102.056 229.72 106.887 227.41 110.668L200.425 157.404C198.64 160.555 194.335 161.185 191.605 158.875C184.57 152.573 178.27 145.011 173.23 136.294ZM224.155 73.2796H169.345C166.195 73.2796 163.885 70.2338 164.725 67.1881C167.035 59.2063 170.395 51.4345 174.91 44.2928C176.695 41.4571 179.74 39.7767 183.1 39.7767H207.67C211.135 39.7767 214.285 41.5621 215.965 44.6079L228.355 66.1379C230.14 69.2886 227.83 73.2796 224.155 73.2796ZM91.435 39.7767H116.005C119.365 39.7767 122.41 41.4571 124.195 44.2928C128.605 51.4345 132.07 59.2063 134.38 67.1881C135.22 70.2338 132.91 73.2796 129.76 73.2796H74.845C71.17 73.2796 68.86 69.2886 70.645 66.0329L83.14 44.6079C84.82 41.5621 87.97 39.7767 91.435 39.7767ZM45.76 123.691L73.165 171.162C74.74 173.893 73.27 177.464 70.225 178.199C62.14 180.195 53.74 181.14 45.34 180.825C41.98 180.72 38.935 178.934 37.36 175.994L25.075 154.674C23.395 151.733 23.395 148.057 25.075 145.116L37.465 123.586C39.355 120.436 43.87 120.436 45.76 123.691ZM70.645 224.725C74.635 217.268 79.57 210.442 85.45 204.455C87.655 202.145 91.435 202.67 93.01 205.4L120.415 252.872C122.305 256.022 119.995 260.118 116.215 260.118H91.435C87.97 260.118 84.82 258.333 83.14 255.287L70.855 233.967C69.175 231.236 69.07 227.666 70.645 224.725ZM207.565 260.223H182.68C179.005 260.223 176.695 256.232 178.48 252.977L205.885 205.505C207.46 202.775 211.24 202.25 213.445 204.56C219.22 210.547 224.26 217.373 228.25 224.83C229.825 227.771 229.72 231.342 228.145 234.177L215.86 255.497C214.18 258.438 211.03 260.223 207.565 260.223Z" fill="#191919"/>
</g>
<defs>
<clipPath id="clip0_1_55">
<rect width="300" height="300" fill="white"/>
</clipPath>
</defs>
</svg>
