<svg width="300" height="300" viewBox="0 0 300 300" fill="none" xmlns="http://www.w3.org/2000/svg">
<g clip-path="url(#clip0_1_99)">
<path d="M99.3 186.5C119.5 166.3 119.5 133.6 99.3 113.5L44.1 58.1999C27.8 41.9999 0 53.4999 0 76.4999C0 83.2999 2.7 89.9 7.6 94.8L99.3 186.5Z" fill="#191919"/>
<path d="M135.9 48.7L94.8 7.6C89.9 2.7 83.2999 0 76.4999 0C53.4999 0 41.9999 27.8 58.1999 44.1L62.7999 48.7C82.9999 68.8 115.7 68.8 135.9 48.7Z" fill="#191919"/>
<path d="M251.3 135.9L292.4 94.8C297.2 90 300 83.3999 300 76.4999C300 53.4999 272.2 41.9999 255.9 58.1999L251.3 62.7999C231.2 82.9999 231.2 115.7 251.3 135.9Z" fill="#191919"/>
<path d="M186.4 26.4L113.5 99.3C133.7 119.5 166.4 119.5 186.5 99.3L241.7 44.1C258 27.8 246.5 0 223.5 0C216.7 0 210.1 2.7 205.2 7.6L186.4 26.4Z" fill="#191919"/>
<path d="M164.1 251.3L205.2 292.4C210 297.2 216.6 300 223.5 300C246.5 300 258 272.2 241.8 255.9L237.2 251.3C217 231.2 184.3 231.2 164.1 251.3Z" fill="#191919"/>
<path d="M237.2 150L200.7 113.5C180.5 133.7 180.5 166.4 200.7 186.5L255.9 241.7C272.2 258 300 246.4 300 223.4C300 216.6 297.3 210 292.4 205.1L237.2 150Z" fill="#191919"/>
<path d="M48.7 164.1L7.6 205.2C2.7 210.1 0 216.7 0 223.5C0 246.5 27.8 258 44.1 241.8L48.7 237.2C68.8 217 68.8 184.3 48.7 164.1Z" fill="#191919"/>
<path d="M186.5 200.7C166.3 180.5 133.6 180.5 113.5 200.7L58.3 255.9C42 272.2 53.5 300 76.5 300C83.3 300 89.9 297.3 94.8 292.4L186.5 200.7Z" fill="#191919"/>
</g>
<defs>
<clipPath id="clip0_1_99">
<rect width="300" height="300" fill="white"/>
</clipPath>
</defs>
</svg>
