<svg width="300" height="300" viewBox="0 0 300 300" fill="none" xmlns="http://www.w3.org/2000/svg">
<g clip-path="url(#clip0_1_53)">
<path d="M300 116.9C300 117.3 300 117.6 300 118C300.3 87.1 288.3 56.8 265.8 34.3C243.5 12 213.7 0 183.1 0H116.8C86.3 0 56.5 12 34.2 34.2C11.7 56.7 -0.300002 87 -2.08989e-06 117.9C-2.08989e-06 117.5 -2.08989e-06 117.2 -2.08989e-06 116.8V183.1C-2.08989e-06 182.7 -2.08989e-06 182.4 -2.08989e-06 182C-0.300002 212.9 11.7 243.2 34.2 265.7C56.7 288.2 87 300.2 117.9 299.9C117.5 299.9 117.2 299.9 116.8 299.9H183.1C182.7 299.9 182.4 299.9 182 299.9C212.9 300.2 243.2 288.2 265.7 265.7C288.2 243.2 300.2 212.9 299.9 182C299.9 182.4 299.9 182.7 299.9 183.1V116.9H300ZM296.5 145.1C296.8 143.9 297.1 142.7 297.3 141.5C297.1 142.7 296.8 143.9 296.5 145.1C296.2 146.3 296 147.5 295.9 148.8C296.1 147.5 296.2 146.3 296.5 145.1ZM300 119.6C300 120.3 300 120.9 299.9 121.6C299.9 120.9 299.9 120.3 300 119.6ZM299.8 123.3C299.8 124 299.7 124.6 299.7 125.3C299.7 124.6 299.8 123.9 299.8 123.3ZM299.6 126.9C299.5 127.5 299.5 128.2 299.4 128.8C299.4 128.2 299.5 127.6 299.6 126.9ZM299.2 130.6C299.1 131.2 299 131.8 299 132.4C299 131.8 299.1 131.2 299.2 130.6ZM298.7 134.3C298.6 134.9 298.5 135.5 298.4 136.1C298.5 135.5 298.6 134.9 298.7 134.3ZM298.1 137.9C298 138.5 297.9 139.2 297.7 139.8C297.8 139.2 298 138.5 298.1 137.9ZM76.9 69.4C82.7 56.4 90.7 44.8 100.9 34.6C112.9 22.6 127.4 13.3 143.3 7.6C147.6 6 152.4 6 156.8 7.6C172.6 13.4 187.2 22.6 199.2 34.6C209.4 44.8 217.4 56.4 223.2 69.4C224 71.1 222.3 72.9 220.5 72.3C199.5 65.3 176.6 64.3 155 69.7C151.8 70.5 148.5 70.5 145.3 69.7C123.7 64.4 100.8 65.3 79.8 72.3C77.8 73 76.1 71.2 76.9 69.4ZM4 148.8C3.9 147.6 3.7 146.3 3.4 145.1C3.1 143.9 2.8 142.7 2.6 141.5C2.9 142.7 3.1 143.9 3.4 145.1C3.8 146.3 3.9 147.5 4 148.8ZM0.0999979 121.6C0.0999979 120.9 -2.08989e-06 120.3 -2.08989e-06 119.6C0.0999979 120.3 0.0999979 120.9 0.0999979 121.6ZM2.3 139.8C2.2 139.2 2 138.5 1.9 137.9C2 138.5 2.2 139.2 2.3 139.8ZM1.6 136C1.5 135.4 1.4 134.8 1.3 134.2C1.4 134.9 1.5 135.5 1.6 136ZM1.1 132.4C0.999998 131.8 0.899998 131.2 0.899998 130.6C0.899998 131.2 0.999998 131.8 1.1 132.4ZM0.599998 128.8C0.499998 128.2 0.499998 127.5 0.399998 126.9C0.499998 127.6 0.599998 128.2 0.599998 128.8ZM0.299998 125.2C0.299998 124.5 0.199998 123.9 0.199998 123.2C0.199998 123.9 0.299998 124.6 0.299998 125.2ZM3.5 154.9C3.2 156.1 2.9 157.3 2.7 158.5C2.9 157.3 3.2 156.1 3.5 154.9C3.8 153.7 4 152.5 4.1 151.2C3.9 152.5 3.8 153.7 3.5 154.9ZM-2.08989e-06 180.4C-2.08989e-06 179.7 -2.09361e-06 179.1 0.0999979 178.4C0.0999979 179.1 0.0999979 179.7 -2.08989e-06 180.4ZM0.199998 176.7C0.199998 176 0.299998 175.4 0.299998 174.7C0.299998 175.4 0.199998 176.1 0.199998 176.7ZM0.399998 173.1C0.499998 172.5 0.499998 171.8 0.599998 171.2C0.599998 171.8 0.499998 172.4 0.399998 173.1ZM0.799998 169.4C0.899998 168.8 0.999998 168.2 0.999998 167.6C0.999998 168.2 0.899998 168.8 0.799998 169.4ZM1.3 165.7C1.4 165.1 1.5 164.5 1.6 163.9C1.5 164.6 1.4 165.1 1.3 165.7ZM1.9 162.1C2 161.5 2.1 160.8 2.3 160.2C2.2 160.8 2 161.5 1.9 162.1ZM69.7 145.1C70.5 148.3 70.5 151.6 69.7 154.8C64.4 176.4 65.3 199.3 72.3 220.3C72.9 222.1 71.1 223.8 69.4 223C56.4 217.2 44.8 209.2 34.6 199C22.6 187 13.3 172.5 7.6 156.6C6 152.3 6 147.5 7.6 143.1C13.4 127.3 22.6 112.7 34.6 100.7C44.8 90.5 56.4 82.5 69.4 76.7C71.1 75.9 72.9 77.6 72.3 79.4C65.3 100.7 64.4 123.5 69.7 145.1ZM145.1 296.5C143.9 296.8 142.7 297.1 141.5 297.3C142.7 297.1 143.9 296.8 145.1 296.5C146.3 296.2 147.5 296 148.8 295.9C147.5 296.1 146.3 296.2 145.1 296.5ZM119.6 300C120.3 300 120.9 300 121.6 299.9C120.9 299.9 120.3 299.9 119.6 300ZM123.3 299.8C124 299.8 124.6 299.7 125.3 299.7C124.6 299.7 123.9 299.8 123.3 299.8ZM126.9 299.6C127.5 299.5 128.2 299.5 128.8 299.4C128.2 299.4 127.6 299.5 126.9 299.6ZM130.6 299.2C131.2 299.1 131.8 299 132.4 299C131.8 299 131.2 299.1 130.6 299.2ZM134.3 298.7C134.9 298.6 135.5 298.5 136.1 298.4C135.5 298.5 134.9 298.6 134.3 298.7ZM137.9 298.1C138.5 298 139.2 297.9 139.8 297.7C139.2 297.8 138.5 298 137.9 298.1ZM151.2 296C152.4 296.1 153.7 296.3 154.9 296.6C156.1 296.9 157.3 297.2 158.5 297.4C157.3 297.1 156.1 296.9 154.9 296.6C153.7 296.2 152.5 296.1 151.2 296ZM178.4 299.9C179.1 299.9 179.7 300 180.4 300C179.7 299.9 179.1 299.9 178.4 299.9ZM160.2 297.7C160.8 297.8 161.5 298 162.1 298.1C161.5 298 160.8 297.8 160.2 297.7ZM164 298.4C164.6 298.5 165.2 298.6 165.8 298.7C165.1 298.6 164.5 298.5 164 298.4ZM167.6 298.9C168.2 299 168.8 299.1 169.4 299.1C168.8 299.1 168.2 299 167.6 298.9ZM171.2 299.4C171.8 299.5 172.5 299.5 173.1 299.6C172.4 299.5 171.8 299.4 171.2 299.4ZM174.8 299.7C175.5 299.7 176.1 299.8 176.8 299.8C176.1 299.8 175.4 299.7 174.8 299.7ZM223.1 230.6C217.3 243.6 209.3 255.2 199.1 265.4C187.1 277.4 172.6 286.7 156.7 292.4C152.4 294 147.6 294 143.2 292.4C127.4 286.6 112.8 277.4 100.8 265.4C90.6 255.2 82.6 243.5 76.8 230.6C76 228.9 77.7 227.1 79.5 227.7C100.5 234.8 123.4 235.7 145 230.3C148.2 229.5 151.5 229.5 154.7 230.3C176.3 235.7 199.2 234.7 220.2 227.7C222.2 227 223.9 228.8 223.1 230.6ZM226.2 156.7C220.4 172.5 211.2 187.1 199.2 199.1C187.2 211.1 172.7 220.4 156.8 226.1C152.5 227.7 147.7 227.7 143.3 226.1C127.5 220.3 112.9 211.1 100.9 199.1C88.9 187.1 79.6 172.6 73.9 156.7C72.3 152.4 72.3 147.6 73.9 143.2C79.7 127.4 88.9 112.8 100.9 100.8C112.9 88.8 127.4 79.5 143.3 73.8C147.6 72.2 152.4 72.2 156.8 73.8C172.6 79.6 187.2 88.8 199.2 100.8C211.2 112.8 220.5 127.3 226.2 143.2C227.7 147.6 227.7 152.4 226.2 156.7ZM292.4 156.7C286.6 172.5 277.4 187.1 265.4 199.1C255.2 209.3 243.6 217.3 230.6 223.1C228.9 223.9 227.1 222.2 227.7 220.4C234.7 199.4 235.7 176.5 230.3 154.9C229.5 151.7 229.5 148.4 230.3 145.2C235.6 123.6 234.7 100.7 227.7 79.7C227.1 77.9 228.9 76.2 230.6 77C243.6 82.8 255.2 90.8 265.4 101C277.4 113 286.7 127.5 292.4 143.4C294 147.6 294 152.4 292.4 156.7ZM296 151.2C296.1 152.4 296.3 153.7 296.6 154.9C296.9 156.1 297.2 157.3 297.4 158.5C297.1 157.3 296.9 156.1 296.6 154.9C296.2 153.7 296.1 152.5 296 151.2ZM299.9 178.4C299.9 179.1 300 179.7 300 180.4C299.9 179.7 299.9 179.1 299.9 178.4ZM297.7 160.2C297.8 160.8 298 161.5 298.1 162.1C298 161.5 297.8 160.8 297.7 160.2ZM298.4 164C298.5 164.6 298.6 165.2 298.7 165.8C298.6 165.1 298.5 164.6 298.4 164ZM298.9 167.6C299 168.2 299.1 168.8 299.1 169.4C299.1 168.8 299 168.2 298.9 167.6ZM299.4 171.2C299.5 171.8 299.5 172.5 299.6 173.1C299.5 172.4 299.4 171.8 299.4 171.2ZM299.7 174.8C299.7 175.5 299.8 176.1 299.8 176.8C299.8 176.1 299.7 175.4 299.7 174.8Z" fill="#191919"/>
</g>
<defs>
<clipPath id="clip0_1_53">
<rect width="300" height="300" fill="white"/>
</clipPath>
</defs>
</svg>
