<svg width="300" height="300" viewBox="0 0 300 300" fill="none" xmlns="http://www.w3.org/2000/svg">
<g clip-path="url(#clip0_1_19)">
<path d="M248.917 120.42C246.818 54.6636 193.535 1.59893 127.557 0C125.858 0 124.459 1.29913 124.459 2.998L124.359 47.1686C124.359 49.3671 122.659 51.066 120.46 51.1659C54.6818 53.1646 1.59947 106.529 0 172.485C0 174.184 1.29957 175.583 2.999 175.583L47.0843 175.683C49.2836 175.683 50.983 177.382 51.083 179.58C53.1823 245.336 106.564 298.401 172.443 300C174.142 300 175.541 298.701 175.541 297.002L175.641 252.831C175.641 250.633 177.341 248.934 179.54 248.834C245.318 246.736 298.401 193.371 300 127.515C300 125.816 298.7 124.417 297.001 124.417L252.916 124.317C250.716 124.317 249.017 122.618 248.917 120.42ZM171.243 248.534C133.855 246.336 103.865 215.956 102.466 178.381C102.366 176.782 101.066 175.483 99.4668 175.483L55.4815 175.383C53.1823 175.383 51.3829 173.484 51.4828 171.186C53.6821 133.811 84.072 103.831 121.659 102.432C123.259 102.332 124.558 101.033 124.558 99.4337L124.658 55.3631C124.658 53.0646 126.558 51.2658 128.857 51.3658C166.245 53.5643 196.235 83.944 197.634 121.519C197.734 123.118 199.034 124.417 200.633 124.417L244.618 124.517C246.918 124.517 248.717 126.416 248.617 128.714C246.418 167.089 214.528 197.568 175.641 197.568L175.541 244.537C175.442 246.835 173.542 248.634 171.243 248.534Z" fill="#191919"/>
</g>
<defs>
<clipPath id="clip0_1_19">
<rect width="300" height="300" fill="white"/>
</clipPath>
</defs>
</svg>
