<svg width="300" height="300" viewBox="0 0 300 300" fill="none" xmlns="http://www.w3.org/2000/svg">
<g clip-path="url(#clip0_1_82)">
<path d="M276.5 198.5L254.3 176.3L246.7 168.7L245.4 167.4C241.1 163.1 238.3 157.5 238 151.5C237.6 144.5 240.1 137.8 245 132.9L248.9 129C251.9 126 256.7 126 259.7 129C265.4 134.7 268.8 142.3 268.6 150.4C268.6 152.9 268.2 155.4 267.6 157.7C267 159.9 267.6 162.2 269.2 163.9L285.7 180.4C287.6 182.3 290.9 181.9 292.3 179.5C297.5 170.4 300.2 160 300 149.2C299.8 133.2 293 118 281.7 106.6L279.8 104.7L276.5 101.4L254.3 79.2001L226.1 51.0001C223.1 48.0001 223.1 43.2001 226.1 40.2001L227.7 38.6001C238 28.3001 255.4 29.5001 264.1 42.0001C266.1 44.9001 267.5 48.3001 268 51.8001C268.4 54.4001 267.8 58.3001 267.3 61.1001C266.9 63.1001 267.6 65.2001 269 66.7001L285.9 83.6001C287.8 85.5001 291.1 85.1001 292.5 82.8001C297.2 74.6001 299.7 65.2001 299.7 55.5001C299.7 40.8001 294 26.9001 283.6 16.5001C262 -4.99989 227 -4.99989 205.5 16.5001L198.5 23.5001L176.3 45.7001L168.7 53.3001L167 55.0001C157.6 64.4001 142.3 64.4001 132.8 55.0001L129 51.2001C126 48.2001 126 43.4001 129 40.4001L129.5 39.9001C135.1 34.3001 142.6 31.4001 150 31.4001C152.6 31.4001 155.3 31.8001 157.8 32.5001C160 33.1001 162.3 32.5001 163.9 30.9001L180.4 14.4001C182.4 12.4001 181.9 9.10011 179.5 7.80011C156.5 -5.09989 126.8 -1.79989 107.3 17.7001L104.7 20.3001L101.4 23.6001L79.3 45.7001L66.3 58.7001L51.1 73.9001C48.1 76.9001 43.3 76.9001 40.3 73.9001L38.7 72.3001C33.2 66.8001 30.7 59.0001 32.2 51.1001C32.8 47.9001 34.1 44.8001 36 42.1001C40.6 35.5001 47.8 31.9001 55.5 31.9001C57.4 31.9001 59.3 32.1001 61.1 32.5001C63.2 33.0001 65.5 32.4001 67.1 30.9001L83.7 14.3001C85.6 12.4001 85.2 9.10011 82.9 7.70011C74.7 3.00011 65.3 0.500113 55.6 0.500113C40.9 0.500113 27 6.20011 16.6 16.6001C6.10001 26.9001 0.30001 40.7001 0.30001 55.4001C0.30001 70.1001 6.00001 84.0001 16.4 94.4001L23.4 101.4L45.6 123.6L54.8 132.8C64.2 142.2 64.2 157.5 54.8 167L51 170.8C48 173.8 43.2 173.8 40.2 170.8L39.7 170.3C32.1 162.7 29.6 151.8 32.3 142C32.9 139.8 32.3 137.5 30.7 135.9L14.2 119.4C12.2 117.4 8.90001 117.9 7.60001 120.3C-5.29999 143.3 -1.99999 173 17.5 192.5L20.1 195.1L23.4 198.4L45.6 220.6L58.6 233.6L73.8 248.8C76.8 251.8 76.8 256.6 73.8 259.6L72.2 261.2C66.7 266.7 59 269.1 51.2 267.8C47.9 267.2 44.8 265.9 42 264C33.4 258 30.2 247.9 32.4 238.9C32.9 236.8 32.3 234.5 30.8 232.9L14.2 216.3C12.3 214.4 9.00001 214.8 7.60001 217.2C-4.39999 238.2 -1.39999 265.5 16.5 283.4C26.9 293.8 40.8 299.5 55.5 299.5C62.9 299.5 70 298.1 76.6 295.3C83.2 292.6 89.3 288.5 94.5 283.3L101.5 276.3L123.7 254.1L131.3 246.5L132.5 245.3C137.2 240.6 143.4 237.8 150 237.8C156.5 237.8 162.5 240.3 167.1 244.9L170.9 248.7C173.9 251.7 173.9 256.5 170.9 259.5C165.2 265.2 157.6 268.5 149.5 268.4C147 268.4 144.5 268 142.2 267.4C140 266.8 137.7 267.4 136 269L119.5 285.5C117.6 287.4 118 290.7 120.4 292.1C129.5 297.3 139.9 300 150.7 299.8C166.7 299.6 181.9 292.8 193.3 281.5L195.2 279.6L198.5 276.3L220.7 254.1L233.7 241.1L248.9 225.9C251.9 222.9 256.7 222.9 259.7 225.9L260.9 227.1C270.2 236.4 270.6 251.9 261.3 261.1C256.8 265.5 250.9 268 244.6 268C242.7 268 240.8 267.8 239 267.4C236.9 266.9 234.6 267.5 233 269L216.4 285.6C214.5 287.5 214.9 290.8 217.3 292.2C238.3 304.2 265.6 301.2 283.5 283.3C305 261.8 305 226.8 283.5 205.3L276.5 198.5ZM207.8 222.8C202.7 227.9 194.4 227.9 189.3 222.8C178.8 212.3 164.9 206.5 150 206.5C135.2 206.5 121.2 212.3 110.7 222.8C105.6 227.9 97.3 227.9 92.2 222.8L77.1 207.7C72 202.6 72 194.3 77.1 189.2C98.8 167.5 98.8 132.3 77.1 110.6C72 105.5 72 97.2001 77.1 92.1001L92.2 77.0001C97.3 71.9001 105.6 71.9001 110.7 77.0001C132.4 98.7001 167.6 98.7001 189.3 77.0001C194.4 71.9001 202.7 71.9001 207.8 77.0001L222.9 92.1001C228 97.2001 228 105.5 222.9 110.6C212.4 121.1 206.6 135 206.6 149.9C206.6 164.7 212.4 178.7 222.9 189.2C228 194.3 228 202.6 222.9 207.7L207.8 222.8Z" fill="#191919"/>
</g>
<defs>
<clipPath id="clip0_1_82">
<rect width="300" height="300" fill="white"/>
</clipPath>
</defs>
</svg>
