<svg width="300" height="300" viewBox="0 0 300 300" fill="none" xmlns="http://www.w3.org/2000/svg">
<path d="M274.728 257.336C276.209 258.219 276.703 260.084 275.716 261.557C259.625 285.509 227.246 293.264 201.876 278.638L164.561 257.237C160.118 254.685 155.084 253.409 150.049 253.409C145.015 253.409 139.98 254.685 135.538 257.237L98.2231 278.638C72.7541 293.264 40.4738 285.509 24.383 261.557C23.3958 260.182 23.8894 258.219 25.3701 257.336L108.095 209.823C133.958 194.902 166.14 194.902 192.103 209.823L274.728 257.336Z" fill="#191919"/>
<path d="M294.274 229.554C293.485 231.027 291.609 231.616 290.128 230.831L207.404 183.318C181.54 168.397 165.449 140.714 165.449 110.97V15.945C165.449 14.2762 166.93 12.9018 168.608 13C197.532 14.8652 220.434 38.8177 220.434 68.0712V110.97C220.434 121.277 225.963 130.799 234.946 135.904L272.261 157.304C297.73 172.029 307.108 203.737 294.274 229.554Z" fill="#191919"/>
<path d="M131.392 13C133.07 12.9018 134.551 14.2762 134.551 15.945V110.97C134.551 140.714 118.46 168.397 92.5962 183.318L9.87161 230.831C8.39086 231.714 6.51524 231.125 5.72551 229.554C-7.10766 203.737 2.27043 172.029 27.7393 157.402L65.0542 136.002C74.0375 130.898 79.5656 121.277 79.5656 111.068V68.0712C79.5656 38.8177 102.567 14.8652 131.392 13Z" fill="#191919"/>
</svg>
