<svg width="300" height="300" viewBox="0 0 300 300" fill="none" xmlns="http://www.w3.org/2000/svg">
<g clip-path="url(#clip0_1_88)">
<path d="M209.116 123.7C194.637 115 176.163 118.6 165.877 131.6C164.379 133.5 164.978 136.2 166.975 137.4L187.547 149.7C188.845 150.5 188.845 152.4 187.547 153.1L166.576 165C164.679 166.1 164.08 168.4 164.978 170.3C180.556 201.8 168.973 240.4 138.016 257.9C107.06 275.4 68.1142 265.5 49.1408 236C47.9425 234.2 45.6457 233.6 43.7484 234.6L21.6794 247.1C19.6822 248.2 19.083 250.8 20.2813 252.7C48.4418 298.1 107.659 313.5 154.493 286.9C199.63 261.3 217.305 205.9 196.734 159.3C195.935 157.5 197.932 155.8 199.53 156.8L216.905 167.2C218.903 168.4 221.599 167.6 222.597 165.4C229.088 150.4 223.596 132.4 209.116 123.7Z" fill="#191919"/>
<path d="M243.268 66.2999C198.331 39.3999 140.612 51.9999 110.654 93.9999C109.556 95.5999 107.059 94.7999 107.059 92.7999V70.9999C107.059 68.5999 104.962 66.6999 102.666 66.9999C86.3885 69.1999 73.7063 83.0999 73.7063 100.1C73.7063 117 86.2886 131 102.566 133.2C104.962 133.5 106.96 131.6 106.96 129.2V104.9C106.96 103.4 108.657 102.4 109.955 103.2L131.325 116C133.123 117.1 135.52 116.5 136.718 114.8C156.39 85.6999 195.635 76.6999 226.092 94.9999C256.65 113.3 267.235 152.1 250.958 183.3C249.959 185.2 250.558 187.5 252.455 188.6L274.225 201.7C276.122 202.9 278.719 202.2 279.817 200.2C305.381 153.2 289.503 93.9999 243.268 66.2999Z" fill="#191919"/>
<path d="M97.7726 199.8C99.7697 200 100.269 202.6 98.5714 203.5L79.8976 214.2C77.8006 215.4 77.2014 218.1 78.5995 220C88.4856 233.2 106.86 237.2 121.639 228.9C136.418 220.6 142.31 202.7 136.119 187.4C135.22 185.2 132.524 184.3 130.527 185.5L109.856 197.2C108.557 198 106.86 197 106.86 195.5V170.8C106.86 168.7 105.162 166.9 103.065 166.8C68.0143 164.8 40.2533 135.6 40.2533 99.9999C40.2533 64.3999 68.1142 35.2999 103.165 33.3999C105.262 33.2999 106.96 31.5999 106.96 29.3999V3.99995C106.96 1.69995 105.062 -0.100055 102.865 -5.50593e-05C49.6401 2.09994 7.0998 45.9999 6.99994 99.9999C6.90008 152.2 46.844 195.2 97.7726 199.8Z" fill="#191919"/>
</g>
<defs>
<clipPath id="clip0_1_88">
<rect width="300" height="300" fill="white"/>
</clipPath>
</defs>
</svg>
