<svg width="300" height="300" viewBox="0 0 300 300" fill="none" xmlns="http://www.w3.org/2000/svg">
<g clip-path="url(#clip0_1_93)">
<path d="M253.048 147.043L310.945 82.8101C313.289 80.1191 310.945 76.0241 307.429 76.7261L260.548 86.6711C259.376 86.9051 258.556 85.5011 259.376 84.6821L291.49 49.114C293.834 46.423 291.49 42.328 287.974 43.03L203.237 61.0481C201.362 61.3991 199.604 60.3461 199.018 58.5911L172.413 -23.426C171.358 -26.819 166.553 -26.819 165.381 -23.426L150.613 22.087C150.262 23.257 148.621 23.257 148.269 22.087L133.502 -23.426C132.447 -26.819 127.642 -26.819 126.47 -23.426L99.8651 58.8251C99.2791 60.5801 97.4038 61.633 95.6458 61.282L10.9091 43.147C7.39303 42.445 5.049 46.5401 7.39303 49.2311L39.5063 84.799C40.3267 85.735 39.5063 87.0221 38.3342 86.7881L-8.54639 76.8431C-12.0624 76.1411 -14.4065 80.2361 -12.0624 82.9271L45.9524 147.16C47.2416 148.564 47.2416 150.67 45.9524 152.074L-12.0624 216.19C-14.4065 218.881 -12.0624 222.976 -8.54639 222.274L38.3342 212.329C39.5063 212.095 40.3267 213.499 39.5063 214.318L7.39303 249.886C5.049 252.577 7.39303 256.672 10.9091 255.97L95.6458 237.952C97.521 237.601 99.2791 238.654 99.8651 240.409L126.587 322.66C127.642 326.053 132.447 326.053 133.619 322.66L148.387 277.147C148.738 275.977 150.379 275.977 150.731 277.147L165.498 322.66C166.553 326.053 171.358 326.053 172.53 322.66L199.252 240.409C199.838 238.654 201.713 237.601 203.471 237.952L288.208 255.97C291.724 256.672 294.068 252.577 291.724 249.886L259.611 214.318C258.79 213.382 259.611 212.095 260.783 212.329L307.664 222.274C311.18 222.976 313.524 218.881 311.18 216.19L253.048 151.957C251.758 150.553 251.758 148.447 253.048 147.043ZM172.999 198.406L150.613 267.319C150.262 268.489 148.621 268.489 148.269 267.319L125.884 198.406C124.946 195.364 121.899 193.609 118.735 194.311L47.9448 209.404C46.7728 209.638 45.9524 208.234 46.7728 207.415L95.2942 153.595C97.4038 151.255 97.4038 147.745 95.2942 145.405L46.7728 91.5851C45.9524 90.6491 46.7728 89.3621 47.9448 89.5961L118.852 104.689C121.899 105.391 124.946 103.519 126.001 100.594L148.387 31.681C148.738 30.511 150.379 30.511 150.731 31.681L173.116 100.594C174.054 103.636 177.101 105.391 180.265 104.689L251.172 89.5961C252.344 89.3621 253.165 90.7661 252.344 91.5851L203.823 145.405C201.713 147.745 201.713 151.255 203.823 153.595L252.344 207.415C253.165 208.351 252.344 209.638 251.172 209.404L180.265 194.311C176.984 193.609 173.936 195.364 172.999 198.406Z" fill="#191919"/>
</g>
<defs>
<clipPath id="clip0_1_93">
<rect width="300" height="300" fill="white"/>
</clipPath>
</defs>
</svg>
