<svg width="300" height="300" viewBox="0 0 300 300" fill="none" xmlns="http://www.w3.org/2000/svg">
<g clip-path="url(#clip0_1_97)">
<path d="M298.798 149.2L242.184 54.8C240.581 52.2 236.773 52.2 235.17 54.8L212.525 92.6C211.323 94.6 208.517 94.6 207.315 92.6L152.906 2.00005C151.303 -0.599951 147.495 -0.599951 145.892 2.00005L121.242 43.1C120.14 44.9 118.136 46.1 116.032 46.1H67.034C64.2284 46.1 61.523 47.6 60.02 50L3.50696 144.3C1.90375 147 3.80756 150.4 7.01397 150.4H52.004C54.4088 150.4 55.8116 153 54.6092 155L0.601143 245C-1.00206 247.7 0.901744 251.1 4.10816 251.1H51.2023C53.3066 251.1 55.3106 252.2 56.4128 254.1L81.5631 296C83.0661 298.4 85.6713 299.9 88.5771 299.9H145.591H202.104C205.21 299.9 207.214 296.5 205.611 293.8L183.266 256.6C182.064 254.6 183.467 252 185.872 252H237.775H294.289C297.395 252 299.399 248.6 297.796 245.9L273.747 205.8C272.545 203.9 272.545 201.5 273.747 199.6L298.998 157.5C300.401 155 300.401 151.8 298.798 149.2ZM148.998 206.8L171.343 244C172.545 246 171.142 248.6 168.737 248.6H65.4308C63.026 248.6 61.6232 246 62.8256 244L89.3787 199.8L117.535 152.9C119.138 150.2 117.234 146.8 114.028 146.8H69.038C66.6332 146.8 65.2304 144.2 66.4328 142.2L92.1843 99.1L118.236 55.6C119.439 53.6 122.244 53.6 123.447 55.6L149.299 98.8L177.655 146C179.258 148.6 183.066 148.6 184.669 146L207.315 108.2C208.517 106.2 211.323 106.2 212.525 108.2L238.577 151.6L265.23 196.1C266.433 198.1 265.03 200.7 262.625 200.7H152.305C149.299 200.7 147.295 204.1 148.998 206.8Z" fill="#191919"/>
</g>
<defs>
<clipPath id="clip0_1_97">
<rect width="300" height="300" fill="white"/>
</clipPath>
</defs>
</svg>
