<svg width="300" height="300" viewBox="0 0 300 300" fill="none" xmlns="http://www.w3.org/2000/svg">
<path d="M295 121.221H252.4C249 121.221 246.3 118.523 246.3 115.125V72.6567C246.3 69.8588 244.1 67.6604 241.3 67.6604H198.7C195.3 67.6604 192.6 64.9624 192.6 61.5649L192.4 30.8875C192.4 28.0896 190.7 25.5914 188.2 24.4923C171.6 17.5973 153.9 14 135.6 14C60.8 14 0 74.7552 0 149.5C0 224.245 60.8 285 135.6 285C153.9 285 171.5 281.403 188.2 274.408C190.8 273.309 192.4 270.81 192.4 268.013L192.6 235.237C192.6 231.839 195.3 229.141 198.7 229.141H241.3C244.1 229.141 246.3 226.943 246.3 224.145V181.576C246.3 178.179 249 175.481 252.4 175.481H295C297.8 175.481 300 173.282 300 170.485V126.017C300 123.419 297.8 121.221 295 121.221ZM132.1 174.881H91.5C88.1 174.881 85.4 172.183 85.4 168.786V128.116C85.4 124.718 88.1 122.02 91.5 122.02H132.2C135.6 122.02 138.3 124.718 138.3 128.116V168.786C138.2 172.083 135.5 174.881 132.1 174.881ZM185.8 121.221H145.1C141.7 121.221 139 118.523 139 115.125V74.5553C139 71.1578 141.7 68.4598 145.1 68.4598H185.8C189.2 68.4598 191.9 71.1578 191.9 74.5553V115.225C191.8 118.523 189.1 121.221 185.8 121.221ZM145.1 175.681H185.8C189.2 175.681 191.9 178.379 191.9 181.776V222.446C191.9 225.844 189.2 228.542 185.8 228.542H145.1C141.7 228.542 139 225.844 139 222.446V181.776C139 178.379 141.8 175.681 145.1 175.681ZM198.8 122.12H239.5C242.9 122.12 245.6 124.818 245.6 128.216V168.886C245.6 172.283 242.9 174.981 239.5 174.981H198.8C195.4 174.981 192.7 172.283 192.7 168.886V128.216C192.7 124.818 195.4 122.12 198.8 122.12Z" fill="#191919"/>
</svg>
