<svg width="300" height="300" viewBox="0 0 300 300" fill="none" xmlns="http://www.w3.org/2000/svg">
<g clip-path="url(#clip0_1_118)">
<path d="M128.9 253.22L294 157.847C296.7 156.348 300 158.247 300 161.346L300 229.826C300 233.725 297.9 237.224 294.6 239.224L155.4 319.6C152.1 321.5 147.9 321.5 144.6 319.6L108.2 298.606L108.2 298.506L63.2 272.514L63.2 272.614L29.9 253.42C2.59998 237.624 0.900003 198.436 27.2 181.041C27.8 180.641 28.3 180.341 28.9 179.941L207.9 76.4712C208 76.3712 208.2 76.2713 208.3 76.1713C229.3 63.8749 229 33.4837 207.9 21.2873L191.8 11.99C191.1 25.9859 183.4 38.7822 171.1 45.7801L5.99999 141.052C3.29999 142.552 -7.11086e-06 140.652 -6.9754e-06 137.553L-3.98641e-06 69.1733C-3.81598e-06 65.2745 2.09999 61.7755 5.39999 59.7761L144.6 -20.6005C147.9 -22.5 152.1 -22.5 155.4 -20.6005L171.5 -11.3032L253.5 35.983L271 46.18C298.3 61.9754 299.6 101.464 272.7 118.159C272.2 118.459 271.6 118.859 271.1 119.159L92 222.529C91.9 222.629 91.7 222.729 91.6 222.829C70.7 235.125 71 265.516 92 277.613L108.2 287.01C109 272.914 116.7 260.218 128.9 253.22Z" fill="#231F20"/>
</g>
<defs>
<clipPath id="clip0_1_118">
<rect width="300" height="300" fill="white" transform="translate(300) rotate(90)"/>
</clipPath>
</defs>
</svg>
