<svg width="300" height="300" viewBox="0 0 300 300" fill="none" xmlns="http://www.w3.org/2000/svg">
<g clip-path="url(#clip0_1_113)">
<path d="M0.700119 230.981L27.1001 276.698C28.5001 279.099 31.6001 279.999 34.0001 278.599L84.8001 249.288C99.8001 240.584 118.6 251.488 118.6 268.795V276.998C118.6 279.799 120.9 282.1 123.7 282.1H176.5C179.3 282.1 181.6 279.799 181.6 276.998V268.795C181.6 251.488 200.4 240.584 215.4 249.288L266.2 278.599C268.6 279.999 271.7 279.199 273.1 276.698L299.5 230.981C300.9 228.58 300.1 225.479 297.6 224.078L246.8 194.767C231.8 186.064 231.8 164.355 246.8 155.752L253.9 151.651C256.3 150.25 257.2 147.149 255.8 144.748L229.3 99.0307C227.9 96.6298 224.8 95.7294 222.4 97.13L215.3 101.232C200.3 109.935 181.5 99.0307 181.5 81.7241V23.1019C181.5 20.3009 179.2 18 176.4 18H123.6C120.8 18 118.5 20.3009 118.5 23.1019V81.8242C118.5 99.1307 99.7001 110.035 84.7001 101.332L77.6001 97.23C75.2001 95.8295 72.1001 96.6298 70.7001 99.1307L44.3001 144.848C42.9001 147.249 43.7001 150.35 46.2001 151.751L53.3001 155.852C68.3001 164.556 68.3001 186.264 53.3001 194.867L2.50012 224.078C0.100119 225.479 -0.699881 228.58 0.700119 230.981Z" fill="#191919"/>
<path d="M150 213.674C171.208 213.674 188.4 196.475 188.4 175.26C188.4 154.044 171.208 136.845 150 136.845C128.792 136.845 111.6 154.044 111.6 175.26C111.6 196.475 128.792 213.674 150 213.674Z" fill="white"/>
</g>
<defs>
<clipPath id="clip0_1_113">
<rect width="300" height="300" fill="white"/>
</clipPath>
</defs>
</svg>
