<svg width="300" height="300" viewBox="0 0 300 300" fill="none" xmlns="http://www.w3.org/2000/svg">
<g clip-path="url(#clip0_1_37)">
<path d="M120.73 33.436L190.45 154.309C192.34 157.568 195.91 159.67 199.69 159.67H237.91C241.165 159.67 243.265 156.096 241.585 153.258L171.445 31.5441C169.555 28.2857 165.985 26.1836 162.205 26.1836H71.9049C68.1249 26.1836 64.5549 28.1806 62.6649 31.5441L-7.4751 153.153C-9.1551 155.991 -7.0551 159.565 -3.8001 159.565H34.4199C38.1999 159.565 41.7699 157.568 43.6599 154.204L113.38 33.3309C115.06 30.5981 119.155 30.5981 120.73 33.436Z" fill="#191919"/>
<path d="M70.225 240.813L139.945 119.939C141.835 116.681 141.835 112.582 139.945 109.324L120.835 76.2147C119.155 73.3768 115.06 73.3768 113.485 76.2147L43.24 197.824C41.35 201.082 41.35 205.181 43.24 208.44L88.39 286.745C90.28 290.003 93.85 292.105 97.63 292.105H237.91C241.165 292.105 243.265 288.532 241.585 285.694L222.475 252.585C220.585 249.326 217.015 247.224 213.235 247.224H73.9C70.645 247.224 68.545 243.651 70.225 240.813Z" fill="#191919"/>
<path d="M228.04 10.1022L208.93 43.211C207.04 46.4693 207.04 50.5685 208.93 53.8268L278.65 174.7C280.33 177.538 278.23 181.112 274.975 181.112H135.64C131.86 181.112 128.29 183.109 126.4 186.472L107.29 219.581C105.61 222.419 107.71 225.993 110.965 225.993H251.245C255.025 225.993 258.595 223.996 260.485 220.632L305.635 142.327C307.525 139.069 307.525 134.97 305.635 131.711L235.39 10.1022C233.815 7.26428 229.72 7.26428 228.04 10.1022Z" fill="#191919"/>
</g>
<defs>
<clipPath id="clip0_1_37">
<rect width="300" height="300" fill="white"/>
</clipPath>
</defs>
</svg>
