<svg width="300" height="300" viewBox="0 0 300 300" fill="none" xmlns="http://www.w3.org/2000/svg">
<g clip-path="url(#clip0_1_28)">
<path d="M93.4675 217.487L49.0454 261.91C47.3369 263.618 47.5379 266.332 49.2464 267.839C67.4374 283.417 88.3419 294.07 110.251 299.899C112.262 300.402 114.372 299.397 115.076 297.487L138.694 235.578C140.201 231.558 143.719 228.442 148.04 227.638C153.769 226.633 159.297 229.95 161.307 235.176L185.025 297.387C185.729 299.296 187.839 300.402 189.849 299.799C211.759 293.97 232.664 283.317 250.854 267.739C252.664 266.231 252.764 263.518 251.055 261.809L206.633 217.387C175.277 186.231 124.724 186.231 93.4675 217.487Z" fill="#191919"/>
<path d="M82.5126 93.4673L38.0904 49.0452C36.3819 47.3366 33.6683 47.5377 32.1608 49.2462C16.5829 67.4372 5.92964 88.3417 0.100493 110.251C-0.402019 112.261 0.603006 114.372 2.51255 115.075L64.5226 138.693C68.5427 140.201 71.6583 143.719 72.4623 148.04C73.4673 153.769 70.1507 159.296 64.9246 161.307L2.61306 184.925C0.703508 185.628 -0.402019 187.739 0.200996 189.749C6.03014 211.658 16.6834 232.563 32.2613 250.754C33.7688 252.563 36.4824 252.663 38.1909 250.955L82.6131 206.533C113.769 175.276 113.769 124.724 82.5126 93.4673Z" fill="#191919"/>
<path d="M206.533 82.5126L250.955 38.0904C252.663 36.3819 252.462 33.6683 250.754 32.1608C232.563 16.5829 211.658 5.92964 189.749 0.100493C187.739 -0.402019 185.628 0.603006 184.925 2.51255L161.307 64.4221C159.799 68.4422 156.281 71.5578 151.96 72.3618C146.231 73.3668 140.704 70.0502 138.693 64.8241L115.075 2.61306C114.372 0.703508 112.261 -0.402019 110.251 0.200996C88.3417 5.92964 67.4372 16.5829 49.2462 32.1608C47.4372 33.6683 47.3367 36.3819 49.0452 38.0904L93.4673 82.5126C124.724 113.769 175.276 113.769 206.533 82.5126Z" fill="#191919"/>
<path d="M235.176 161.206C229.95 159.196 226.633 153.769 227.638 147.94C228.342 143.618 231.457 140.201 235.578 138.593L297.488 114.975C299.397 114.271 300.503 112.161 299.9 110.151C294.071 88.3417 283.417 67.4371 267.839 49.2462C266.332 47.4371 263.618 47.3366 261.91 49.0452L217.488 93.4673C186.231 124.724 186.231 175.276 217.488 206.533L261.91 250.955C263.618 252.663 266.332 252.462 267.839 250.754C283.417 232.563 294.071 211.658 299.9 189.749C300.402 187.739 299.397 185.628 297.488 184.925L235.176 161.206Z" fill="#191919"/>
</g>
<defs>
<clipPath id="clip0_1_28">
<rect width="300" height="300" fill="white"/>
</clipPath>
</defs>
</svg>
