<svg width="300" height="300" viewBox="0 0 300 300" fill="none" xmlns="http://www.w3.org/2000/svg">
<g clip-path="url(#clip0_1_63)">
<path d="M236.669 150.399C273.371 127.759 298.304 87.7659 300 41.8883C300.1 39.0957 297.806 36.7021 295.013 36.7021H268.085C265.891 36.7021 264.096 34.9069 264.096 32.7127V4.98666C264.096 2.19411 261.802 -0.0997738 258.91 -3.97889e-05C213.132 1.79517 173.138 26.629 150.399 63.3311C127.759 26.7287 87.7659 1.79517 41.8883 -3.97889e-05C39.0957 -0.0997738 36.7021 2.19411 36.7021 4.98666V31.9149C36.7021 34.109 34.9069 35.9042 32.7127 35.9042H4.98666C2.19411 35.9042 -0.0997738 38.1981 -3.97889e-05 41.0904C1.79517 86.8683 26.629 126.862 63.3311 149.601C26.7287 172.34 1.79517 212.234 -3.97889e-05 258.112C-0.0997738 260.904 2.19411 263.298 4.98666 263.298H31.9149C34.109 263.298 35.9042 265.093 35.9042 267.287V295.113C35.9042 297.906 38.1981 300.199 41.0904 300.1C86.8683 298.304 126.862 273.471 149.601 236.769C172.34 273.471 212.334 298.404 258.112 300.1C260.904 300.199 263.298 297.906 263.298 295.113V268.185C263.298 265.991 265.093 264.195 267.287 264.195H295.113C297.906 264.195 300.199 261.902 300.1 259.009C298.304 213.132 273.371 173.138 236.669 150.399ZM150 133.544C159.076 133.544 166.456 140.924 166.456 150C166.456 159.076 159.076 166.456 150 166.456C140.924 166.456 133.544 159.076 133.544 150C133.544 140.924 140.924 133.544 150 133.544ZM259.907 44.4813C256.217 89.7606 220.213 126.064 175.033 130.153C172.64 130.352 170.545 128.358 170.745 125.864C174.435 80.5851 210.439 44.2819 255.618 40.1928C258.012 39.9933 260.106 41.988 259.907 44.4813ZM125.864 129.255C80.5851 125.565 44.2819 89.5611 40.1928 44.3816C39.9933 41.988 41.988 39.8936 44.4813 40.093C89.7606 43.7832 126.064 79.7872 130.153 124.967C130.352 127.46 128.258 129.554 125.864 129.255ZM40.093 255.519C43.7832 210.239 79.7872 173.936 124.967 169.847C127.36 169.648 129.455 171.642 129.255 174.136C125.565 219.415 89.5611 255.718 44.3816 259.807C41.988 260.007 39.8936 258.012 40.093 255.519ZM174.235 170.745C219.515 174.435 255.818 210.439 259.907 255.618C260.106 258.012 258.112 260.106 255.618 259.907C210.339 256.217 174.036 220.213 169.947 175.033C169.648 172.54 171.742 170.545 174.235 170.745Z" fill="#191919"/>
</g>
<defs>
<clipPath id="clip0_1_63">
<rect width="300" height="300" fill="white"/>
</clipPath>
</defs>
</svg>
