<svg width="300" height="300" viewBox="0 0 300 300" fill="none" xmlns="http://www.w3.org/2000/svg">
<g clip-path="url(#clip0_1_65)">
<path d="M212.903 0.0967167C202.065 0.967684 191.903 10.9354 190.839 21.7741C190.645 23.3225 190.645 24.9677 190.839 26.4193C191.613 34.8386 188.419 43.1612 182.323 49.0645L180.968 50.3225C178.065 53.129 171.968 54.8709 165.968 55.9354C155.419 57.7741 144.581 57.7741 134.032 55.9354C128.032 54.8709 121.936 53.129 119.032 50.3225L117.774 49.0645C111.678 43.1612 108.484 34.8386 109.258 26.4193C109.355 24.8709 109.355 23.3225 109.258 21.7741C108.194 10.9354 98.0324 0.967684 87.0969 0.0967167C72.1936 -1.06457 59.9033 11.2257 61.0646 26.129C62.0324 37.8387 71.4195 47.3225 83.1291 48.2903C84.6775 48.387 86.2259 48.387 87.6775 48.2903C96.2904 47.4193 104.903 50.0322 111.097 56.129L112.258 57.2903C118.936 63.7741 121.839 73.258 120.387 82.4515C120 84.6774 119.903 86.9999 120.097 89.4193C121.161 104.129 133.161 116.129 147.871 117.097C165.387 118.258 180 104.419 180 87.1935C180 85.4516 179.807 83.7096 179.516 82.0645C177.968 72.9677 181.161 63.6774 187.839 57.1935L188.903 56.129C195.097 50.129 203.71 47.4193 212.323 48.2903C213.774 48.4838 215.323 48.4838 216.871 48.2903C228.581 47.3225 237.968 37.8387 238.936 26.129C240.097 11.2257 227.807 -1.06457 212.903 0.0967167Z" fill="#191919"/>
<path d="M0.0968387 87.0967C0.967806 97.9355 10.9355 108.097 21.7743 109.161C23.3226 109.355 24.9678 109.355 26.4194 109.161C34.8388 108.387 43.1614 111.581 49.0646 117.677L50.3226 119.032C53.1291 121.935 54.871 128.032 55.9355 134.032C57.7743 144.581 57.7743 155.419 55.9355 165.968C54.871 171.968 53.1291 178.064 50.3226 180.968L49.0646 182.226C43.1614 188.323 34.8388 191.516 26.4194 190.742C24.871 190.645 23.3226 190.645 21.7743 190.742C10.9355 191.806 0.967806 201.968 0.0968387 212.903C-1.06445 227.806 11.2259 240.194 26.2259 238.935C37.9355 237.968 47.4194 228.581 48.3872 216.871C48.4839 215.323 48.4839 213.774 48.3872 212.323C47.5162 203.71 50.1291 195.097 56.2259 188.903L57.3872 187.742C63.871 181.064 73.3549 178.161 82.5485 179.613C84.7743 180 87.0968 180.097 89.5162 179.903C104.226 178.839 116.226 166.839 117.194 152.129C118.355 134.613 104.516 120 87.2904 120C85.5484 120 83.8065 120.194 82.1614 120.484C73.0646 122.032 63.7743 118.839 57.2904 112.161L56.2259 111.097C50.2259 104.903 47.5162 96.2903 48.3872 87.6774C48.5807 86.2258 48.5807 84.6774 48.3872 83.129C47.3226 71.4193 37.8388 61.9355 26.1291 61.0645C11.2259 59.9032 -1.06445 72.1935 0.0968387 87.0967Z" fill="#191919"/>
<path d="M87.0967 299.903C97.9354 299.032 108.097 289.064 109.161 278.226C109.355 276.677 109.355 275.032 109.161 273.581C108.387 265.161 111.581 256.839 117.677 250.935L118.935 249.677C121.839 246.871 127.935 245.129 133.935 244.064C144.484 242.226 155.322 242.226 165.871 244.064C171.871 245.129 177.968 246.871 180.871 249.677L182.129 250.935C188.226 256.839 191.419 265.161 190.645 273.581C190.548 275.129 190.548 276.677 190.645 278.226C191.71 289.064 201.871 299.032 212.71 299.903C227.613 301.064 240 288.774 238.742 273.774C237.774 262.064 228.387 252.581 216.677 251.613C215.129 251.516 213.581 251.516 212.129 251.613C203.516 252.484 194.903 249.871 188.71 243.774L187.548 242.613C180.871 236.129 177.968 226.645 179.419 217.452C179.806 215.226 179.903 212.903 179.71 210.484C178.645 195.774 166.645 183.774 151.935 182.806C134.419 181.645 119.806 195.484 119.806 212.71C119.806 214.452 120 216.194 120.29 217.839C121.839 226.935 118.645 236.226 111.968 242.71L110.903 243.774C104.71 249.774 96.0967 252.484 87.4838 251.613C86.0322 251.419 84.4838 251.419 82.9354 251.613C71.2257 252.581 61.8386 262.064 60.8709 273.774C59.9031 288.774 72.1935 301.064 87.0967 299.903Z" fill="#191919"/>
<path d="M299.903 212.903C299.032 202.064 289.064 191.903 278.226 190.839C276.677 190.645 275.032 190.645 273.581 190.839C265.161 191.613 256.839 188.419 250.935 182.323L249.677 180.968C246.871 178.064 245.129 171.968 244.064 165.968C242.226 155.419 242.226 144.581 244.064 134.032C245.129 128.032 246.871 121.935 249.677 119.032L250.935 117.774C256.839 111.677 265.161 108.484 273.581 109.258C275.129 109.355 276.677 109.355 278.226 109.258C289.064 108.193 299.032 98.0322 299.903 87.1935C301.064 72.2903 288.774 59.9032 273.774 61.1612C262.064 62.129 252.581 71.5161 251.613 83.2258C251.516 84.7741 251.516 86.3225 251.613 87.7741C252.484 96.387 249.871 105 243.774 111.193L242.613 112.355C236.129 119.032 226.645 121.935 217.452 120.484C215.226 120.097 212.903 120 210.484 120.193C195.774 121.258 183.774 133.258 182.806 147.968C181.645 165.484 195.484 180.097 212.71 180.097C214.452 180.097 216.194 179.903 217.839 179.613C226.935 178.064 236.226 181.258 242.71 187.935L243.774 189C249.774 195.194 252.484 203.806 251.613 212.419C251.419 213.871 251.419 215.419 251.613 216.968C252.581 228.677 262.064 238.064 273.774 239.032C288.774 240.097 301.064 227.806 299.903 212.903Z" fill="#191919"/>
<path d="M85.1612 104.516C95.8506 104.516 104.516 95.8506 104.516 85.1612C104.516 74.4719 95.8506 65.8064 85.1612 65.8064C74.4719 65.8064 65.8064 74.4719 65.8064 85.1612C65.8064 95.8506 74.4719 104.516 85.1612 104.516Z" fill="#191919"/>
<path d="M85.1612 234.194C95.8506 234.194 104.516 225.528 104.516 214.839C104.516 204.149 95.8506 195.484 85.1612 195.484C74.4719 195.484 65.8064 204.149 65.8064 214.839C65.8064 225.528 74.4719 234.194 85.1612 234.194Z" fill="#191919"/>
<path d="M214.839 234.194C225.528 234.194 234.194 225.528 234.194 214.839C234.194 204.149 225.528 195.484 214.839 195.484C204.149 195.484 195.484 204.149 195.484 214.839C195.484 225.528 204.149 234.194 214.839 234.194Z" fill="#191919"/>
<path d="M214.839 104.516C225.528 104.516 234.194 95.8506 234.194 85.1612C234.194 74.4719 225.528 65.8064 214.839 65.8064C204.149 65.8064 195.484 74.4719 195.484 85.1612C195.484 95.8506 204.149 104.516 214.839 104.516Z" fill="#191919"/>
<path d="M150 169.355C160.689 169.355 169.355 160.689 169.355 150C169.355 139.311 160.689 130.645 150 130.645C139.311 130.645 130.645 139.311 130.645 150C130.645 160.689 139.311 169.355 150 169.355Z" fill="#191919"/>
</g>
<defs>
<clipPath id="clip0_1_65">
<rect width="300" height="300" fill="white"/>
</clipPath>
</defs>
</svg>
