<svg width="300" height="300" viewBox="0 0 300 300" fill="none" xmlns="http://www.w3.org/2000/svg">
<g clip-path="url(#clip0_1_21)">
<path d="M296.998 214.864C248.542 161.665 211.664 98.9567 188.679 30.8517C187.135 26.3113 182.847 23.2273 178.045 23.2273C159.348 20.3147 140.738 20.3147 122.041 23.2273C117.238 23.2273 112.95 26.3113 111.406 30.8517C88.3361 98.9567 51.4579 161.665 2.9159 214.864C0.171474 217.862 -0.771923 222.145 0.514527 225.915C6.34643 243.391 15.1801 259.496 26.415 273.631C29.0737 276.972 33.4476 278.6 37.65 277.657C111.578 261.295 188.336 261.295 262.264 277.657C266.466 278.6 270.84 276.972 273.499 273.631C284.734 259.496 293.568 243.391 299.4 225.915C300.686 222.145 299.743 217.862 296.998 214.864ZM259.777 240.135L214.408 213.407C174.614 189.935 125.214 189.935 85.506 213.407L40.1372 240.135L35.0771 231.569L82.7615 203.47C121.355 180.683 145.026 139.22 145.026 94.502V48.756H155.06V94.502C155.06 139.306 178.731 180.683 217.324 203.47L264.923 231.569L259.777 240.135Z" fill="#191919"/>
</g>
<defs>
<clipPath id="clip0_1_21">
<rect width="300" height="300" fill="white"/>
</clipPath>
</defs>
</svg>
