<svg width="300" height="300" viewBox="0 0 300 300" fill="none" xmlns="http://www.w3.org/2000/svg">
<g clip-path="url(#clip0_1_116)">
<path d="M299.9 71.6091C300 69.3152 298.205 67.3205 295.911 67.3205L238.863 66.8219C235.771 66.8219 233.178 64.4283 232.879 61.3365C229.887 28.3245 203.059 1.99474 169.847 5.64439e-05C167.553 -0.0996776 165.658 1.69554 165.658 3.98942L165.16 60.8378C165.16 64.129 162.467 66.8219 159.176 66.8219H140.426C137.334 66.8219 134.741 64.4283 134.442 61.3365C131.549 28.3245 104.821 2.09447 71.6091 5.64439e-05C69.3152 -0.0996776 67.3205 1.69554 67.3205 3.98942L66.8219 61.137C66.8219 64.2288 64.4282 66.8219 61.3365 67.1211C28.3245 70.0134 1.99474 96.8418 5.64436e-05 130.153C-0.0996776 132.447 1.69554 134.342 3.98942 134.342L60.8378 134.84C64.129 134.84 66.8219 137.533 66.8219 140.825V159.575C66.8219 162.666 64.4282 165.259 61.3365 165.559C28.3245 168.351 2.09447 195.18 5.64436e-05 228.391C-0.0996776 230.685 1.69554 232.68 3.98942 232.68L61.137 233.178C64.2288 233.178 66.8219 235.572 67.1211 238.664C70.0134 271.676 96.8418 297.906 130.153 300C132.447 300.1 134.342 298.305 134.342 296.011L134.84 239.162C134.84 235.871 137.533 233.178 140.825 233.178H159.575C162.666 233.178 165.259 235.572 165.559 238.664C168.451 271.676 195.279 297.906 228.491 300C230.785 300.1 232.779 298.305 232.779 296.011L233.278 238.863C233.278 235.771 235.672 233.178 238.763 232.879C271.775 229.987 298.005 203.158 300.1 169.847C300.199 167.553 298.404 165.658 296.11 165.658L239.262 165.16C235.971 165.16 233.278 162.467 233.278 159.176V140.426C233.278 137.334 235.672 134.741 238.763 134.442C271.676 131.549 297.906 104.821 299.9 71.6091ZM74.5014 166.556C105.419 169.847 130.153 194.481 133.444 225.499C133.843 228.989 131.051 232.081 127.46 232.081H73.8032C70.512 232.081 67.8192 229.388 67.8192 226.097V172.54C67.8192 168.95 70.911 166.157 74.5014 166.556ZM67.8192 127.46V73.8033C67.8192 70.512 70.512 67.8192 73.8032 67.8192H127.46C131.051 67.8192 133.843 70.911 133.444 74.4017C130.153 105.319 105.519 130.053 74.5014 133.344C70.911 133.743 67.8192 130.951 67.8192 127.46ZM232.181 172.54V226.197C232.181 229.488 229.488 232.181 226.197 232.181H172.54C168.95 232.181 166.157 229.089 166.556 225.598C169.847 194.681 194.481 169.947 225.499 166.656C229.089 166.157 232.181 168.95 232.181 172.54ZM172.54 67.8192H226.197C229.488 67.8192 232.181 70.512 232.181 73.8033V127.46C232.181 131.051 229.089 133.843 225.598 133.444C194.681 130.153 169.947 105.519 166.656 74.5014C166.157 70.911 168.95 67.8192 172.54 67.8192Z" fill="#191919"/>
</g>
<defs>
<clipPath id="clip0_1_116">
<rect width="300" height="300" fill="white"/>
</clipPath>
</defs>
</svg>
