<svg width="300" height="300" viewBox="0 0 300 300" fill="none" xmlns="http://www.w3.org/2000/svg">
<g clip-path="url(#clip0_1_49)">
<path d="M206.1 118.628L156.4 78.0767C152.7 75.0504 147.3 75.0504 143.6 78.0767L93.8999 118.628C91.8999 120.242 91.8999 123.369 93.8999 124.983L109.5 137.693C111.7 139.509 114.9 139.509 117.2 137.693L150 110.962L182.8 137.794C185 139.61 188.2 139.61 190.5 137.794L206.1 125.084C208.1 123.369 208.1 120.343 206.1 118.628Z" fill="#191919"/>
<path d="M255.9 159.381L298.5 124.681C300.5 123.067 300.5 119.939 298.5 118.325L156.4 2.32012C152.7 -0.706111 147.3 -0.706111 143.6 2.32012L1.5 118.225C-0.5 119.839 -0.5 122.966 1.5 124.58L44.1 159.381L1.5 194.082C-0.5 195.696 -0.5 198.823 1.5 200.437L122.5 299.092C125.2 301.211 129.1 299.395 129.1 295.864V195.494C129.1 192.367 127.7 189.442 125.3 187.525L90.7 159.28L67.4 140.316L47.2 123.773C45.7 122.562 45.7 120.242 47.2 119.032L146.2 38.2313C148.4 36.4156 151.6 36.4156 153.9 38.2313L252.9 119.032C254.4 120.242 254.4 122.562 252.9 123.773L232.7 140.316L209.3 159.381L174.7 187.626C172.3 189.543 170.9 192.468 170.9 195.595V295.965C170.9 299.395 174.9 301.311 177.5 299.193L298.5 200.538C300.5 198.924 300.5 195.797 298.5 194.183L255.9 159.381ZM69.3 179.96L97.6 203.06C99 204.27 99.9 205.985 99.9 207.801V238.366C99.9 240.081 97.9 241.089 96.6 239.98L47.1 199.63C45.6 198.42 45.6 196.1 47.1 194.889L65.4 179.96C66.6 178.951 68.2 178.951 69.3 179.96ZM200.1 238.366V207.801C200.1 205.985 200.9 204.169 202.4 203.06L230.7 179.96C231.8 179.052 233.4 179.052 234.5 179.96L252.8 194.889C254.3 196.1 254.3 198.42 252.8 199.63L203.3 239.98C202.1 241.089 200.1 240.182 200.1 238.366Z" fill="#191919"/>
</g>
<defs>
<clipPath id="clip0_1_49">
<rect width="300" height="300" fill="white"/>
</clipPath>
</defs>
</svg>
