<svg width="300" height="300" viewBox="0 0 300 300" fill="none" xmlns="http://www.w3.org/2000/svg">
<g clip-path="url(#clip0_1_86)">
<path d="M297.9 228C291.6 224.4 285.8 220.1 280.5 215.2L280.3 215L280.2 214.9C261.1 197.1 250.2 173 249.3 146.9C248.5 120.8 257.9 96.0001 275.8 77.1001L276.1 76.7001C285 67.1001 292.8 56.7001 299.4 45.5001C300.5 43.7001 299.9 41.3001 298.1 40.2001L279.9 29.1001C278.1 28.0001 275.6 28.6001 274.6 30.4001C269.1 39.8001 262.5 48.6001 255 56.7001C254.8 56.9001 254.7 57.0001 254.5 57.2001C254.5 57.2001 254.5 57.2001 254.4 57.3001C254.4 57.3001 254.4 57.3001 254.3 57.4001C233.9 79.1001 207.9 94.3001 179.2 101.1C169.2 103.5 158.8 104.9 148.4 105.2C136.2 105.6 125.2 98.2001 120.5 86.9001C119.8 85.3001 119.1 83.6001 118.4 82.0001C117.4 79.9001 119.2 77.5001 121.5 77.9001C130 79.4001 138.8 80.0001 147.7 79.8001C181.6 78.7001 213 64.5001 236.1 39.7001L236.4 39.4001C242.7 32.6001 248.2 25.1001 252.9 17.2001C254 15.4001 253.4 13.0001 251.6 11.9001L233.4 0.800092C231.5 -0.299908 229.1 0.300092 228 2.20009C224.4 8.50009 220.1 14.3001 215.1 19.6001L214.8 19.9001C197 39.0001 172.9 49.9001 146.8 50.8001C120.8 51.5001 96 42.1001 77 24.2001L76.8 24.0001L76.7 23.9001C67.1 15.0001 56.7 7.20009 45.5 0.500092C43.7 -0.599908 41.3 9.16719e-05 40.2 1.80009L29.1 20.1001C28 21.9001 28.6 24.4001 30.4 25.4001C39.9 31.0001 48.7 37.6001 56.8 45.1001L56.9 45.2001L57 45.3001C78.8 65.7001 94 91.8001 101 120.6C103.4 130.6 104.8 140.9 105.1 151.3C105.1 151.4 105.1 151.5 105.1 151.6C105.5 163.7 98 174.7 86.8 179.3C85.2 180 83.5 180.7 81.9 181.4C79.8 182.4 77.4 180.6 77.8 178.3C79.3 169.8 79.9 161 79.7 152.1C78.7 118.4 64.6 87.1001 39.9 64.0001C39.7 63.8001 39.5 63.6001 39.2 63.4001C32.4 57.2001 25 51.7001 17.1 47.1001C15.3 46.0001 12.9 46.6001 11.8 48.4001L0.800043 66.6001C-0.299957 68.5001 0.300043 70.9001 2.20004 72.0001C8.40004 75.6001 14.3 79.9001 19.6 84.8001L20 85.1001C39.1 102.9 50 127 50.9 153.1C51.7 179.2 42.3 203.9 24.4 222.9L24 223.3C15.1 232.9 7.30004 243.3 0.700043 254.5C-0.399957 256.3 0.200043 258.7 2.00004 259.8L20.2 270.9C22 272 24.4 271.4 25.5 269.6C31 260.2 37.6 251.4 45.1 243.3C45.3 243.1 45.4 243 45.6 242.8C45.6 242.8 45.6 242.8 45.6 242.7C66 221 92 205.8 120.8 198.9C130.8 196.5 141.2 195.1 151.6 194.8C163.8 194.4 174.8 201.8 179.5 213.1C180.2 214.7 180.9 216.4 181.6 218C182.6 220.1 180.8 222.5 178.5 222.1C170 220.6 161.2 220 152.3 220.2C118.4 221.3 87.1 235.5 64 260.2L63.7 260.5L63.6 260.6C57.3 267.4 51.8 274.9 47.1 282.8C46 284.6 46.6 287 48.4 288.1L66.6 299.2C68.5 300.3 70.9 299.7 72 297.8C75.6 291.5 79.9 285.7 84.8 280.4L85 280.2L85.1 280.1C102.9 261 127 250.1 153.1 249.2C179.2 248.4 204 257.8 222.9 275.7L223.3 276C232.9 284.9 243.3 292.7 254.5 299.3C256.3 300.4 258.7 299.8 259.8 298L270.9 279.8C272 278 271.4 275.5 269.6 274.5C260.1 268.9 251.3 262.3 243.2 254.9C243.1 254.8 243 254.7 242.9 254.6L242.8 254.5C221 234.1 205.9 208.1 199 179.3C196.6 169.3 195.2 159 194.9 148.6C194.9 148.5 194.9 148.4 194.9 148.3C194.5 136.2 202 125.2 213.2 120.6C214.8 119.9 216.5 119.2 218.1 118.5C220.2 117.5 222.6 119.3 222.2 121.6C220.7 130.1 220.1 138.9 220.3 147.8C221.4 181.6 235.6 213 260.3 236.1L260.4 236.2L260.6 236.4L260.7 236.5C267.5 242.8 275 248.3 282.9 253C284.7 254.1 287.1 253.5 288.2 251.7L299.3 233.5C300.4 231.5 299.8 229.1 297.9 228ZM150.8 165.8C150.6 165.8 150.4 165.8 150.2 165.8C141.6 166.1 134.5 159.3 134.3 150.7C134.3 150.6 134.3 150.6 134.3 150.5C134.3 150.4 134.3 150.4 134.3 150.3C134 141.7 140.8 134.5 149.4 134.2C149.5 134.2 149.5 134.2 149.6 134.2C149.7 134.2 149.7 134.2 149.8 134.2C158.4 133.9 165.6 140.7 165.9 149.3C165.9 149.4 165.9 149.4 165.9 149.5C165.9 149.6 165.9 149.6 165.9 149.7C166 158.3 159.4 165.5 150.8 165.8Z" fill="#191919"/>
</g>
<defs>
<clipPath id="clip0_1_86">
<rect width="300" height="300" fill="white"/>
</clipPath>
</defs>
</svg>
